<mxfile host="Electron" modified="2023-12-23T19:25:01.295Z" agent="Mozilla/5.0 (Windows NT 10.0; Win64; x64) AppleWebKit/537.36 (KHTML, like Gecko) draw.io/22.1.11 Chrome/114.0.5735.289 Electron/25.9.8 Safari/537.36" etag="CwReRuIcR_iKhd3ngKrI" version="22.1.11" type="device">
  <diagram name="Page-1" id="E7o3vZweSBchyuLBAiUP">
    <mxGraphModel dx="1418" dy="820" grid="1" gridSize="10" guides="1" tooltips="1" connect="1" arrows="1" fold="1" page="1" pageScale="1" pageWidth="827" pageHeight="1169" math="0" shadow="0">
      <root>
        <mxCell id="0" />
        <mxCell id="1" parent="0" />
        <mxCell id="mj7eINT03_aPtzQ3_pVh-1" value="" style="endArrow=classic;html=1;rounded=0;fontFamily=LM Mono 12;" parent="1" edge="1">
          <mxGeometry width="50" height="50" relative="1" as="geometry">
            <mxPoint x="120" y="520" as="sourcePoint" />
            <mxPoint x="120" y="270" as="targetPoint" />
          </mxGeometry>
        </mxCell>
        <mxCell id="mj7eINT03_aPtzQ3_pVh-2" value="" style="endArrow=classic;html=1;rounded=0;fontFamily=LM Mono 12;fontSize=14;" parent="1" edge="1">
          <mxGeometry width="50" height="50" relative="1" as="geometry">
            <mxPoint x="120" y="520" as="sourcePoint" />
            <mxPoint x="810" y="520" as="targetPoint" />
          </mxGeometry>
        </mxCell>
        <mxCell id="mj7eINT03_aPtzQ3_pVh-3" value="Task Solving&lt;br style=&quot;font-size: 12px;&quot;&gt;Capabilities" style="text;html=1;align=center;verticalAlign=middle;resizable=0;points=[];autosize=1;strokeColor=none;fillColor=none;fontSize=12;fontFamily=LM Mono 12;" parent="1" vertex="1">
          <mxGeometry x="15" y="370" width="90" height="40" as="geometry" />
        </mxCell>
        <mxCell id="mj7eINT03_aPtzQ3_pVh-4" value="Statistical language models" style="rounded=1;whiteSpace=wrap;html=1;fillColor=#cce5ff;strokeColor=#36393d;fontFamily=LM Mono 12;fontSize=12;" parent="1" vertex="1">
          <mxGeometry x="155" y="470" width="130" height="40" as="geometry" />
        </mxCell>
        <mxCell id="mj7eINT03_aPtzQ3_pVh-5" value="Neural Language Models" style="rounded=1;whiteSpace=wrap;html=1;fillColor=#cdeb8b;strokeColor=#36393d;fontFamily=LM Mono 12;fontSize=12;" parent="1" vertex="1">
          <mxGeometry x="349" y="420" width="130" height="40" as="geometry" />
        </mxCell>
        <mxCell id="mj7eINT03_aPtzQ3_pVh-6" value="Pre-trained language models" style="rounded=1;whiteSpace=wrap;html=1;fillColor=#ffcccc;strokeColor=#36393d;fontFamily=LM Mono 12;fontSize=12;" parent="1" vertex="1">
          <mxGeometry x="510" y="370" width="140" height="40" as="geometry" />
        </mxCell>
        <mxCell id="mj7eINT03_aPtzQ3_pVh-7" value="Large language models" style="rounded=1;whiteSpace=wrap;html=1;fillColor=#ffcc99;strokeColor=#36393d;fontFamily=LM Mono 12;fontSize=12;" parent="1" vertex="1">
          <mxGeometry x="660" y="320" width="140" height="40" as="geometry" />
        </mxCell>
        <mxCell id="mj7eINT03_aPtzQ3_pVh-10" value="" style="endArrow=none;dashed=1;html=1;rounded=0;fontFamily=LM Mono 12;" parent="1" edge="1">
          <mxGeometry width="50" height="50" relative="1" as="geometry">
            <mxPoint x="500" y="420" as="sourcePoint" />
            <mxPoint x="500" y="270" as="targetPoint" />
          </mxGeometry>
        </mxCell>
        <mxCell id="mj7eINT03_aPtzQ3_pVh-11" value="" style="endArrow=none;dashed=1;html=1;rounded=0;fontFamily=LM Mono 12;" parent="1" edge="1">
          <mxGeometry width="50" height="50" relative="1" as="geometry">
            <mxPoint x="320" y="520" as="sourcePoint" />
            <mxPoint x="320" y="270" as="targetPoint" />
          </mxGeometry>
        </mxCell>
        <mxCell id="mj7eINT03_aPtzQ3_pVh-12" value="" style="endArrow=none;dashed=1;html=1;rounded=0;fontFamily=LM Mono 12;fontSize=12;" parent="1" edge="1">
          <mxGeometry width="50" height="50" relative="1" as="geometry">
            <mxPoint x="500" y="420" as="sourcePoint" />
            <mxPoint x="810" y="420" as="targetPoint" />
          </mxGeometry>
        </mxCell>
        <mxCell id="mj7eINT03_aPtzQ3_pVh-13" value="Pure Statistical Models&lt;br style=&quot;font-size: 13px;&quot;&gt;&lt;font style=&quot;font-size: 13px;&quot;&gt;Assist in specific tasks&lt;/font&gt;" style="text;html=1;align=center;verticalAlign=bottom;resizable=0;points=[];autosize=1;strokeColor=none;fillColor=none;fontSize=13;fontFamily=LM Mono 12;" parent="1" vertex="1">
          <mxGeometry x="145" y="275" width="150" height="40" as="geometry" />
        </mxCell>
        <mxCell id="mj7eINT03_aPtzQ3_pVh-14" value="&lt;font style=&quot;font-size: 13px;&quot;&gt;Neural Networks Models&lt;br style=&quot;font-size: 13px;&quot;&gt;&lt;/font&gt;&lt;font style=&quot;font-size: 13px;&quot;&gt;Solves some NLP Tasks&lt;/font&gt;" style="text;html=1;align=center;verticalAlign=bottom;resizable=0;points=[];autosize=1;strokeColor=none;fillColor=none;fontSize=13;fontFamily=LM Mono 12;" parent="1" vertex="1">
          <mxGeometry x="325" y="275" width="170" height="40" as="geometry" />
        </mxCell>
        <mxCell id="mj7eINT03_aPtzQ3_pVh-15" value="&lt;font style=&quot;font-size: 13px;&quot;&gt;Transformer Based Models&lt;br style=&quot;font-size: 13px;&quot;&gt;&lt;/font&gt;&lt;font style=&quot;font-size: 13px;&quot;&gt;Solves various real-world tasks&lt;/font&gt;" style="text;html=1;align=center;verticalAlign=bottom;resizable=0;points=[];autosize=1;strokeColor=none;fillColor=none;fontSize=13;fontFamily=LM Mono 12;fontStyle=0" parent="1" vertex="1">
          <mxGeometry x="545" y="275" width="200" height="40" as="geometry" />
        </mxCell>
        <mxCell id="mj7eINT03_aPtzQ3_pVh-17" value="" style="endArrow=none;dashed=1;html=1;rounded=0;entryX=0.5;entryY=1;entryDx=0;entryDy=0;fontFamily=LM Mono 12;fontSize=12;" parent="1" target="mj7eINT03_aPtzQ3_pVh-4" edge="1">
          <mxGeometry width="50" height="50" relative="1" as="geometry">
            <mxPoint x="220" y="520" as="sourcePoint" />
            <mxPoint x="430" y="320" as="targetPoint" />
          </mxGeometry>
        </mxCell>
        <mxCell id="mj7eINT03_aPtzQ3_pVh-18" value="90s" style="text;html=1;align=center;verticalAlign=middle;resizable=0;points=[];autosize=1;strokeColor=none;fillColor=none;fontFamily=LM Mono 12;fontSize=12;" parent="1" vertex="1">
          <mxGeometry x="200" y="518" width="40" height="30" as="geometry" />
        </mxCell>
        <mxCell id="mj7eINT03_aPtzQ3_pVh-20" value="" style="endArrow=none;dashed=1;html=1;rounded=0;entryX=0.5;entryY=1;entryDx=0;entryDy=0;fontFamily=LM Mono 12;" parent="1" target="mj7eINT03_aPtzQ3_pVh-5" edge="1">
          <mxGeometry width="50" height="50" relative="1" as="geometry">
            <mxPoint x="414" y="520" as="sourcePoint" />
            <mxPoint x="230" y="520" as="targetPoint" />
          </mxGeometry>
        </mxCell>
        <mxCell id="mj7eINT03_aPtzQ3_pVh-21" value="2013" style="text;html=1;align=center;verticalAlign=middle;resizable=0;points=[];autosize=1;strokeColor=none;fillColor=none;fontFamily=LM Mono 12;fontSize=12;" parent="1" vertex="1">
          <mxGeometry x="389" y="518" width="50" height="30" as="geometry" />
        </mxCell>
        <mxCell id="mj7eINT03_aPtzQ3_pVh-22" value="2018" style="text;html=1;align=center;verticalAlign=middle;resizable=0;points=[];autosize=1;strokeColor=none;fillColor=none;fontFamily=LM Mono 12;fontSize=12;" parent="1" vertex="1">
          <mxGeometry x="555" y="518" width="50" height="30" as="geometry" />
        </mxCell>
        <mxCell id="mj7eINT03_aPtzQ3_pVh-23" value="" style="endArrow=none;dashed=1;html=1;rounded=0;entryX=0.5;entryY=1;entryDx=0;entryDy=0;fontFamily=LM Mono 12;" parent="1" edge="1">
          <mxGeometry width="50" height="50" relative="1" as="geometry">
            <mxPoint x="580" y="520" as="sourcePoint" />
            <mxPoint x="580" y="410" as="targetPoint" />
          </mxGeometry>
        </mxCell>
        <mxCell id="mj7eINT03_aPtzQ3_pVh-24" value="2020" style="text;html=1;align=center;verticalAlign=middle;resizable=0;points=[];autosize=1;strokeColor=none;fillColor=none;fontFamily=LM Mono 12;fontSize=12;" parent="1" vertex="1">
          <mxGeometry x="705" y="518" width="50" height="30" as="geometry" />
        </mxCell>
        <mxCell id="mj7eINT03_aPtzQ3_pVh-26" value="" style="endArrow=none;dashed=1;html=1;rounded=0;entryX=0.5;entryY=1;entryDx=0;entryDy=0;fontFamily=LM Mono 12;" parent="1" target="mj7eINT03_aPtzQ3_pVh-7" edge="1">
          <mxGeometry width="50" height="50" relative="1" as="geometry">
            <mxPoint x="730" y="520" as="sourcePoint" />
            <mxPoint x="590" y="420" as="targetPoint" />
          </mxGeometry>
        </mxCell>
      </root>
    </mxGraphModel>
  </diagram>
</mxfile>
